<mxfile host="app.diagrams.net" modified="2023-09-16T02:30:33.207Z" agent="Mozilla/5.0 (Windows NT 10.0; Win64; x64) AppleWebKit/537.36 (KHTML, like Gecko) Chrome/117.0.0.0 Safari/537.36" etag="mNKOrbn0GNRXYjfZNNWu" version="21.7.5" type="device">
  <diagram name="PÃ¡gina-1" id="0Y-iDLek27sFe1EVcIVd">
    <mxGraphModel dx="1509" dy="882" grid="1" gridSize="10" guides="1" tooltips="1" connect="1" arrows="1" fold="1" page="1" pageScale="1" pageWidth="1654" pageHeight="1169" math="0" shadow="0">
      <root>
        <mxCell id="0" />
        <mxCell id="1" parent="0" />
        <mxCell id="6JfGiPolu1P45nqdGQlE-1" value="" style="edgeStyle=orthogonalEdgeStyle;rounded=0;orthogonalLoop=1;jettySize=auto;html=1;fillColor=#dae8fc;strokeColor=#6c8ebf;" edge="1" parent="1" source="6JfGiPolu1P45nqdGQlE-2" target="6JfGiPolu1P45nqdGQlE-4">
          <mxGeometry relative="1" as="geometry" />
        </mxCell>
        <mxCell id="6JfGiPolu1P45nqdGQlE-2" value="I" style="ellipse;whiteSpace=wrap;html=1;fillColor=#dae8fc;strokeColor=#6c8ebf;" vertex="1" parent="1">
          <mxGeometry x="355" y="220" width="50" height="50" as="geometry" />
        </mxCell>
        <mxCell id="6JfGiPolu1P45nqdGQlE-47" style="edgeStyle=orthogonalEdgeStyle;rounded=0;orthogonalLoop=1;jettySize=auto;html=1;exitX=0.5;exitY=0;exitDx=0;exitDy=0;entryX=0.5;entryY=0;entryDx=0;entryDy=0;fillColor=#dae8fc;strokeColor=#6c8ebf;" edge="1" parent="1" source="6JfGiPolu1P45nqdGQlE-4" target="6JfGiPolu1P45nqdGQlE-6">
          <mxGeometry relative="1" as="geometry" />
        </mxCell>
        <mxCell id="6JfGiPolu1P45nqdGQlE-4" value="LegajoAlumno,CodigoCarrera,CodigoMateria,Modalidad,Horario" style="shape=trapezoid;perimeter=trapezoidPerimeter;whiteSpace=wrap;html=1;fixedSize=1;direction=west;fillColor=#dae8fc;strokeColor=#6c8ebf;" vertex="1" parent="1">
          <mxGeometry x="110" y="300" width="540" height="30" as="geometry" />
        </mxCell>
        <mxCell id="6JfGiPolu1P45nqdGQlE-5" value="" style="edgeStyle=orthogonalEdgeStyle;rounded=0;orthogonalLoop=1;jettySize=auto;html=1;fillColor=#dae8fc;strokeColor=#6c8ebf;entryX=0.5;entryY=0;entryDx=0;entryDy=0;" edge="1" parent="1" source="6JfGiPolu1P45nqdGQlE-6" target="6JfGiPolu1P45nqdGQlE-42">
          <mxGeometry relative="1" as="geometry">
            <mxPoint x="379.9999999999998" y="1550" as="targetPoint" />
          </mxGeometry>
        </mxCell>
        <mxCell id="6JfGiPolu1P45nqdGQlE-6" value="legajoAlumno != 0" style="swimlane;whiteSpace=wrap;html=1;fillColor=#dae8fc;strokeColor=#6c8ebf;startSize=20;" vertex="1" parent="1">
          <mxGeometry x="30" y="370" width="700" height="620" as="geometry" />
        </mxCell>
        <mxCell id="6JfGiPolu1P45nqdGQlE-7" value="" style="edgeStyle=orthogonalEdgeStyle;rounded=0;orthogonalLoop=1;jettySize=auto;html=1;fillColor=#dae8fc;strokeColor=#6c8ebf;" edge="1" parent="6JfGiPolu1P45nqdGQlE-6" source="6JfGiPolu1P45nqdGQlE-8" target="6JfGiPolu1P45nqdGQlE-36">
          <mxGeometry relative="1" as="geometry" />
        </mxCell>
        <mxCell id="6JfGiPolu1P45nqdGQlE-8" value="&lt;div&gt;CodigoActualCarrera==CodigoCarrera &amp;amp;&amp;amp;&amp;nbsp;&lt;span style=&quot;background-color: initial;&quot;&gt;LegajoAlumno != 0&lt;/span&gt;&lt;/div&gt;" style="swimlane;whiteSpace=wrap;html=1;startSize=23;fillColor=#dae8fc;strokeColor=#6c8ebf;" vertex="1" parent="6JfGiPolu1P45nqdGQlE-6">
          <mxGeometry x="40" y="150" width="610" height="360" as="geometry" />
        </mxCell>
        <mxCell id="6JfGiPolu1P45nqdGQlE-9" style="edgeStyle=orthogonalEdgeStyle;rounded=0;orthogonalLoop=1;jettySize=auto;html=1;exitX=1;exitY=0.5;exitDx=0;exitDy=0;entryX=0.5;entryY=0;entryDx=0;entryDy=0;endArrow=none;endFill=0;fillColor=#dae8fc;strokeColor=#6c8ebf;" edge="1" parent="6JfGiPolu1P45nqdGQlE-8" source="6JfGiPolu1P45nqdGQlE-11" target="6JfGiPolu1P45nqdGQlE-12">
          <mxGeometry relative="1" as="geometry" />
        </mxCell>
        <mxCell id="6JfGiPolu1P45nqdGQlE-10" style="edgeStyle=orthogonalEdgeStyle;rounded=0;orthogonalLoop=1;jettySize=auto;html=1;exitX=0;exitY=0.5;exitDx=0;exitDy=0;entryX=0.5;entryY=1;entryDx=0;entryDy=0;fillColor=#dae8fc;strokeColor=#6c8ebf;" edge="1" parent="6JfGiPolu1P45nqdGQlE-8" source="6JfGiPolu1P45nqdGQlE-11" target="6JfGiPolu1P45nqdGQlE-12">
          <mxGeometry relative="1" as="geometry" />
        </mxCell>
        <mxCell id="6JfGiPolu1P45nqdGQlE-11" value="LegajoAlumno != 0" style="rhombus;whiteSpace=wrap;html=1;fillColor=#dae8fc;strokeColor=#6c8ebf;" vertex="1" parent="6JfGiPolu1P45nqdGQlE-8">
          <mxGeometry x="260" y="190" width="110" height="80" as="geometry" />
        </mxCell>
        <mxCell id="6JfGiPolu1P45nqdGQlE-12" value="&lt;div&gt;CodigoCarrera,CodigoMateria,&lt;/div&gt;&lt;div&gt;Modalidad,Horario&lt;/div&gt;" style="shape=trapezoid;perimeter=trapezoidPerimeter;whiteSpace=wrap;html=1;fixedSize=1;direction=west;fillColor=#dae8fc;strokeColor=#6c8ebf;" vertex="1" parent="6JfGiPolu1P45nqdGQlE-8">
          <mxGeometry x="60.00000000000001" y="270" width="200" height="30" as="geometry" />
        </mxCell>
        <mxCell id="6JfGiPolu1P45nqdGQlE-13" value="" style="edgeStyle=orthogonalEdgeStyle;rounded=0;orthogonalLoop=1;jettySize=auto;html=1;fillColor=#dae8fc;strokeColor=#6c8ebf;" edge="1" parent="6JfGiPolu1P45nqdGQlE-8" source="6JfGiPolu1P45nqdGQlE-14" target="6JfGiPolu1P45nqdGQlE-11">
          <mxGeometry relative="1" as="geometry" />
        </mxCell>
        <mxCell id="6JfGiPolu1P45nqdGQlE-14" value="LegajoAlumno" style="shape=trapezoid;perimeter=trapezoidPerimeter;whiteSpace=wrap;html=1;fixedSize=1;direction=west;fillColor=#dae8fc;strokeColor=#6c8ebf;" vertex="1" parent="6JfGiPolu1P45nqdGQlE-8">
          <mxGeometry x="254.99999999999997" y="130" width="120" height="30" as="geometry" />
        </mxCell>
        <mxCell id="6JfGiPolu1P45nqdGQlE-15" style="edgeStyle=orthogonalEdgeStyle;rounded=0;orthogonalLoop=1;jettySize=auto;html=1;exitX=0.5;exitY=0;exitDx=0;exitDy=0;fillColor=#dae8fc;strokeColor=#6c8ebf;" edge="1" parent="6JfGiPolu1P45nqdGQlE-8" source="6JfGiPolu1P45nqdGQlE-14" target="6JfGiPolu1P45nqdGQlE-14">
          <mxGeometry relative="1" as="geometry" />
        </mxCell>
        <mxCell id="6JfGiPolu1P45nqdGQlE-17" value="contadorCarrera&amp;nbsp;++" style="whiteSpace=wrap;html=1;fillColor=#dae8fc;strokeColor=#6c8ebf;" vertex="1" parent="6JfGiPolu1P45nqdGQlE-8">
          <mxGeometry x="205" y="40" width="200" height="30" as="geometry" />
        </mxCell>
        <mxCell id="6JfGiPolu1P45nqdGQlE-23" value="" style="edgeStyle=orthogonalEdgeStyle;rounded=0;orthogonalLoop=1;jettySize=auto;html=1;fillColor=#dae8fc;strokeColor=#6c8ebf;" edge="1" parent="6JfGiPolu1P45nqdGQlE-6" source="6JfGiPolu1P45nqdGQlE-24" target="6JfGiPolu1P45nqdGQlE-28">
          <mxGeometry relative="1" as="geometry" />
        </mxCell>
        <mxCell id="6JfGiPolu1P45nqdGQlE-24" value="CodigoActualCarrera=CodigoCarrera" style="whiteSpace=wrap;html=1;fillColor=#dae8fc;strokeColor=#6c8ebf;" vertex="1" parent="6JfGiPolu1P45nqdGQlE-6">
          <mxGeometry x="185" y="50" width="330" height="30" as="geometry" />
        </mxCell>
        <mxCell id="6JfGiPolu1P45nqdGQlE-44" style="edgeStyle=orthogonalEdgeStyle;rounded=0;orthogonalLoop=1;jettySize=auto;html=1;exitX=0.5;exitY=1;exitDx=0;exitDy=0;entryX=0.51;entryY=-0.003;entryDx=0;entryDy=0;entryPerimeter=0;fillColor=#dae8fc;strokeColor=#6c8ebf;" edge="1" parent="6JfGiPolu1P45nqdGQlE-6" source="6JfGiPolu1P45nqdGQlE-28" target="6JfGiPolu1P45nqdGQlE-8">
          <mxGeometry relative="1" as="geometry" />
        </mxCell>
        <mxCell id="6JfGiPolu1P45nqdGQlE-28" value="contadorCarrera= 0" style="whiteSpace=wrap;html=1;fillColor=#dae8fc;strokeColor=#6c8ebf;" vertex="1" parent="6JfGiPolu1P45nqdGQlE-6">
          <mxGeometry x="250" y="100" width="200" height="30" as="geometry" />
        </mxCell>
        <mxCell id="6JfGiPolu1P45nqdGQlE-36" value="contadorCarrera&amp;nbsp;" style="shape=trapezoid;perimeter=trapezoidPerimeter;whiteSpace=wrap;html=1;fixedSize=1;fillColor=#dae8fc;strokeColor=#6c8ebf;" vertex="1" parent="6JfGiPolu1P45nqdGQlE-6">
          <mxGeometry x="285" y="540" width="120" height="60" as="geometry" />
        </mxCell>
        <mxCell id="6JfGiPolu1P45nqdGQlE-37" value="" style="edgeStyle=orthogonalEdgeStyle;rounded=0;orthogonalLoop=1;jettySize=auto;html=1;fillColor=#dae8fc;strokeColor=#6c8ebf;" edge="1" parent="6JfGiPolu1P45nqdGQlE-6">
          <mxGeometry relative="1" as="geometry">
            <mxPoint x="349.74" y="20" as="sourcePoint" />
            <mxPoint x="349.74" y="50" as="targetPoint" />
          </mxGeometry>
        </mxCell>
        <mxCell id="6JfGiPolu1P45nqdGQlE-42" value="F" style="ellipse;whiteSpace=wrap;html=1;fillColor=#dae8fc;strokeColor=#6c8ebf;" vertex="1" parent="1">
          <mxGeometry x="350" y="1020" width="60" height="55" as="geometry" />
        </mxCell>
      </root>
    </mxGraphModel>
  </diagram>
</mxfile>
